<?xml version="1.0" encoding="UTF-8" standalone="no"?>
<!DOCTYPE svg PUBLIC "-//W3C//DTD SVG 1.1//EN"
 "http://www.w3.org/Graphics/SVG/1.1/DTD/svg11.dtd">
<!-- Generated by graphviz version 2.26.0 (20091210.2329)
 -->
<!-- Title: g Pages: 1 -->
<svg width="432pt" height="208pt"
 viewBox="0.00 0.00 864.00 416.00" xmlns="http://www.w3.org/2000/svg" xmlns:xlink="http://www.w3.org/1999/xlink">
<g id="graph1" class="graph" transform="scale(1 1) rotate(0) translate(4 412)">
<title>g</title>
<polygon fill="white" stroke="white" points="-4,5 -4,-412 861,-412 861,5 -4,5"/>
<!-- commons&#45;codec.jar -->
<g id="node1" class="node"><title>commons&#45;codec.jar</title>
<ellipse fill="none" stroke="black" cx="768" cy="-241" rx="87.889" ry="19.0919"/>
<text text-anchor="middle" x="768" y="-237.9" font-family="Times Roman,serif" font-size="14.00">commons&#45;codec.jar</text>
</g>
<!-- junit.jar -->
<g id="node2" class="node"><title>junit.jar</title>
<ellipse fill="none" stroke="black" cx="545" cy="-167" rx="41.2167" ry="19.0919"/>
<text text-anchor="middle" x="545" y="-163.9" font-family="Times Roman,serif" font-size="14.00">junit.jar</text>
</g>
<!-- commons&#45;lang.jar -->
<g id="node3" class="node"><title>commons&#45;lang.jar</title>
<ellipse fill="none" stroke="black" cx="366" cy="-167" rx="82.0244" ry="19.0919"/>
<text text-anchor="middle" x="366" y="-163.9" font-family="Times Roman,serif" font-size="14.00">commons&#45;lang.jar</text>
</g>
<!-- ezmorph.jar -->
<g id="node4" class="node"><title>ezmorph.jar</title>
<ellipse fill="none" stroke="black" cx="452" cy="-241" rx="58.1882" ry="19.0919"/>
<text text-anchor="middle" x="452" y="-237.9" font-family="Times Roman,serif" font-size="14.00">ezmorph.jar</text>
</g>
<!-- ezmorph.jar&#45;&gt;junit.jar -->
<g id="edge8" class="edge"><title>ezmorph.jar&#45;&gt;junit.jar</title>
<path fill="none" stroke="black" d="M474.513,-223.087C487.067,-213.097 502.833,-200.552 516.269,-189.861"/>
<polygon fill="black" stroke="black" points="518.639,-192.449 524.284,-183.483 514.28,-186.971 518.639,-192.449"/>
</g>
<!-- ezmorph.jar&#45;&gt;commons&#45;lang.jar -->
<g id="edge4" class="edge"><title>ezmorph.jar&#45;&gt;commons&#45;lang.jar</title>
<path fill="none" stroke="black" d="M431.182,-223.087C420.438,-213.842 407.15,-202.408 395.38,-192.281"/>
<polygon fill="black" stroke="black" points="397.388,-189.391 387.525,-185.521 392.822,-194.697 397.388,-189.391"/>
</g>
<!-- commons&#45;beanutils.jar -->
<g id="node6" class="node"><title>commons&#45;beanutils.jar</title>
<ellipse fill="none" stroke="black" cx="166" cy="-167" rx="99.9096" ry="19.0919"/>
<text text-anchor="middle" x="166" y="-163.9" font-family="Times Roman,serif" font-size="14.00">commons&#45;beanutils.jar</text>
</g>
<!-- ezmorph.jar&#45;&gt;commons&#45;beanutils.jar -->
<g id="edge2" class="edge"><title>ezmorph.jar&#45;&gt;commons&#45;beanutils.jar</title>
<path fill="none" stroke="black" d="M406.366,-229.193C360.193,-217.246 288.229,-198.626 235.068,-184.871"/>
<polygon fill="black" stroke="black" points="235.929,-181.478 225.371,-182.362 234.176,-188.255 235.929,-181.478"/>
</g>
<!-- commons&#45;logging.jar -->
<g id="node9" class="node"><title>commons&#45;logging.jar</title>
<ellipse fill="none" stroke="black" cx="476" cy="-93" rx="94.7523" ry="19.0919"/>
<text text-anchor="middle" x="476" y="-89.9" font-family="Times Roman,serif" font-size="14.00">commons&#45;logging.jar</text>
</g>
<!-- ezmorph.jar&#45;&gt;commons&#45;logging.jar -->
<g id="edge6" class="edge"><title>ezmorph.jar&#45;&gt;commons&#45;logging.jar</title>
<path fill="none" stroke="black" d="M455.088,-221.955C459.17,-196.784 466.403,-152.18 471.2,-122.598"/>
<polygon fill="black" stroke="black" points="474.701,-122.874 472.847,-112.442 467.792,-121.753 474.701,-122.874"/>
</g>
<!-- commons&#45;beanutils.jar&#45;&gt;commons&#45;logging.jar -->
<g id="edge22" class="edge"><title>commons&#45;beanutils.jar&#45;&gt;commons&#45;logging.jar</title>
<path fill="none" stroke="black" d="M228.36,-152.114C279.353,-139.941 351.476,-122.725 404.743,-110.01"/>
<polygon fill="black" stroke="black" points="405.883,-113.336 414.797,-107.61 404.257,-106.527 405.883,-113.336"/>
</g>
<!-- commons&#45;collections.jar -->
<g id="node12" class="node"><title>commons&#45;collections.jar</title>
<ellipse fill="none" stroke="black" cx="166" cy="-93" rx="106.98" ry="19.0919"/>
<text text-anchor="middle" x="166" y="-89.9" font-family="Times Roman,serif" font-size="14.00">commons&#45;collections.jar</text>
</g>
<!-- commons&#45;beanutils.jar&#45;&gt;commons&#45;collections.jar -->
<g id="edge20" class="edge"><title>commons&#45;beanutils.jar&#45;&gt;commons&#45;collections.jar</title>
<path fill="none" stroke="black" d="M160.012,-147.943C159.288,-140.088 159.08,-130.81 159.387,-122.136"/>
<polygon fill="black" stroke="black" points="162.891,-122.19 160.018,-111.992 155.904,-121.756 162.891,-122.19"/>
</g>
<!-- log4j.jar -->
<g id="node11" class="node"><title>log4j.jar</title>
<ellipse fill="none" stroke="black" cx="238" cy="-19" rx="43.8406" ry="19.0919"/>
<text text-anchor="middle" x="238" y="-15.9" font-family="Times Roman,serif" font-size="14.00">log4j.jar</text>
</g>
<!-- commons&#45;logging.jar&#45;&gt;log4j.jar -->
<g id="edge18" class="edge"><title>commons&#45;logging.jar&#45;&gt;log4j.jar</title>
<path fill="none" stroke="black" d="M424.358,-76.9431C382.299,-63.8662 323.504,-45.5852 283.268,-33.0749"/>
<polygon fill="black" stroke="black" points="284.302,-29.7311 273.713,-30.1042 282.223,-36.4155 284.302,-29.7311"/>
</g>
<!-- commons&#45;collections.jar&#45;&gt;commons&#45;beanutils.jar -->
<g id="edge10" class="edge"><title>commons&#45;collections.jar&#45;&gt;commons&#45;beanutils.jar</title>
<path fill="none" stroke="black" d="M171.982,-111.992C172.709,-119.839 172.92,-129.115 172.615,-137.792"/>
<polygon fill="black" stroke="black" points="169.111,-137.746 171.988,-147.943 176.098,-138.178 169.111,-137.746"/>
</g>
<!-- windows.jar -->
<g id="node14" class="node"><title>windows.jar</title>
<ellipse fill="none" stroke="black" cx="409" cy="-389" rx="58.1882" ry="19.0919"/>
<text text-anchor="middle" x="409" y="-385.9" font-family="Times Roman,serif" font-size="14.00">windows.jar</text>
</g>
<!-- windows.jar&#45;&gt;log4j.jar -->
<g id="edge16" class="edge"><title>windows.jar&#45;&gt;log4j.jar</title>
<path fill="none" stroke="black" d="M355.95,-381.231C245.284,-363.529 0,-315.852 0,-241 0,-241 0,-241 0,-167 0,-120.072 13.5409,-103.547 50,-74 88.3611,-42.912 143.684,-29.3958 184.388,-23.5195"/>
<polygon fill="black" stroke="black" points="184.952,-26.9753 194.402,-22.1841 184.027,-20.0367 184.952,-26.9753"/>
</g>
<!-- commons&#45;httpclient.jar -->
<g id="node16" class="node"><title>commons&#45;httpclient.jar</title>
<ellipse fill="none" stroke="black" cx="652" cy="-315" rx="101.823" ry="19.0919"/>
<text text-anchor="middle" x="652" y="-311.9" font-family="Times Roman,serif" font-size="14.00">commons&#45;httpclient.jar</text>
</g>
<!-- windows.jar&#45;&gt;commons&#45;httpclient.jar -->
<g id="edge12" class="edge"><title>windows.jar&#45;&gt;commons&#45;httpclient.jar</title>
<path fill="none" stroke="black" d="M451.605,-376.026C489.489,-364.489 545.402,-347.462 588.548,-334.323"/>
<polygon fill="black" stroke="black" points="589.837,-337.589 598.384,-331.328 587.798,-330.893 589.837,-337.589"/>
</g>
<!-- json&#45;lib.jar -->
<g id="node18" class="node"><title>json&#45;lib.jar</title>
<ellipse fill="none" stroke="black" cx="409" cy="-315" rx="53.2379" ry="19.0919"/>
<text text-anchor="middle" x="409" y="-311.9" font-family="Times Roman,serif" font-size="14.00">json&#45;lib.jar</text>
</g>
<!-- windows.jar&#45;&gt;json&#45;lib.jar -->
<g id="edge14" class="edge"><title>windows.jar&#45;&gt;json&#45;lib.jar</title>
<path fill="none" stroke="black" d="M409,-369.943C409,-362.149 409,-352.954 409,-344.338"/>
<polygon fill="black" stroke="black" points="412.5,-344.249 409,-334.249 405.5,-344.249 412.5,-344.249"/>
</g>
<!-- commons&#45;httpclient.jar&#45;&gt;commons&#45;codec.jar -->
<g id="edge36" class="edge"><title>commons&#45;httpclient.jar&#45;&gt;commons&#45;codec.jar</title>
<path fill="none" stroke="black" d="M680.674,-296.708C695.845,-287.03 714.649,-275.034 730.918,-264.656"/>
<polygon fill="black" stroke="black" points="733.107,-267.411 739.656,-259.082 729.343,-261.509 733.107,-267.411"/>
</g>
<!-- commons&#45;httpclient.jar&#45;&gt;commons&#45;logging.jar -->
<g id="edge38" class="edge"><title>commons&#45;httpclient.jar&#45;&gt;commons&#45;logging.jar</title>
<path fill="none" stroke="black" d="M652.622,-295.984C652.701,-262.126 648.074,-190.93 611,-148 595.726,-130.314 573.908,-118.231 552.253,-110.01"/>
<polygon fill="black" stroke="black" points="553.266,-106.656 542.672,-106.608 550.924,-113.252 553.266,-106.656"/>
</g>
<!-- json&#45;lib.jar&#45;&gt;junit.jar -->
<g id="edge34" class="edge"><title>json&#45;lib.jar&#45;&gt;junit.jar</title>
<path fill="none" stroke="black" d="M450.955,-303.31C474.106,-294.83 501.606,-281.08 519,-260 533.833,-242.024 540.223,-216.147 542.966,-196.251"/>
<polygon fill="black" stroke="black" points="546.459,-196.517 544.12,-186.183 539.504,-195.72 546.459,-196.517"/>
</g>
<!-- json&#45;lib.jar&#45;&gt;commons&#45;lang.jar -->
<g id="edge28" class="edge"><title>json&#45;lib.jar&#45;&gt;commons&#45;lang.jar</title>
<path fill="none" stroke="black" d="M399.665,-296.287C394.743,-285.82 388.929,-272.416 385,-260 378.361,-239.02 373.478,-214.623 370.326,-196.082"/>
<polygon fill="black" stroke="black" points="373.775,-195.485 368.711,-186.178 366.866,-196.611 373.775,-195.485"/>
</g>
<!-- json&#45;lib.jar&#45;&gt;ezmorph.jar -->
<g id="edge32" class="edge"><title>json&#45;lib.jar&#45;&gt;ezmorph.jar</title>
<path fill="none" stroke="black" d="M419.851,-296.327C424.74,-287.913 430.611,-277.809 435.991,-268.55"/>
<polygon fill="black" stroke="black" points="439.155,-270.072 441.153,-259.667 433.102,-266.555 439.155,-270.072"/>
</g>
<!-- json&#45;lib.jar&#45;&gt;commons&#45;beanutils.jar -->
<g id="edge24" class="edge"><title>json&#45;lib.jar&#45;&gt;commons&#45;beanutils.jar</title>
<path fill="none" stroke="black" d="M382.066,-298.596C339.024,-272.381 254.545,-220.929 204.93,-190.711"/>
<polygon fill="black" stroke="black" points="206.451,-187.539 196.09,-185.326 202.81,-193.517 206.451,-187.539"/>
</g>
<!-- json&#45;lib.jar&#45;&gt;commons&#45;logging.jar -->
<g id="edge30" class="edge"><title>json&#45;lib.jar&#45;&gt;commons&#45;logging.jar</title>
<path fill="none" stroke="black" d="M452.032,-303.901C479.77,-295.219 515.477,-281.043 542,-260 573.691,-234.856 582.63,-224.516 595,-186 600.164,-169.92 604.099,-162.229 595,-148 584.196,-131.105 566.732,-119.324 548.472,-111.139"/>
<polygon fill="black" stroke="black" points="549.755,-107.882 539.177,-107.291 547.078,-114.35 549.755,-107.882"/>
</g>
<!-- json&#45;lib.jar&#45;&gt;commons&#45;collections.jar -->
<g id="edge26" class="edge"><title>json&#45;lib.jar&#45;&gt;commons&#45;collections.jar</title>
<path fill="none" stroke="black" d="M363.386,-305.098C276.558,-285.221 92.9458,-237.901 57,-186 47.384,-172.116 48.1473,-162.383 57,-148 66.427,-132.684 81.5787,-121.479 97.6249,-113.342"/>
<polygon fill="black" stroke="black" points="99.5603,-116.301 107.139,-108.898 96.5978,-109.959 99.5603,-116.301"/>
</g>
</g>
</svg>
